<?xml version="1.0" standalone="no"?><!DOCTYPE svg PUBLIC "-//W3C//DTD SVG 1.1//EN" "http://www.w3.org/Graphics/SVG/1.1/DTD/svg11.dtd"><svg class="icon" height="512" viewBox="0 0 1024 1024" version="1.1" xmlns="http://www.w3.org/2000/svg"><path d="M512 512m-512 0a512 512 0 1 0 1024 0 512 512 0 1 0-1024 0Z" fill="#BE3D27" /><path d="M512.002 512m-407.006 0a407.006 407.006 0 1 0 814.012 0 407.006 407.006 0 1 0-814.012 0Z" fill="#E65439" /><path d="M762.3 870.966l-17.98-18.376c0.016-0.442 0.066-0.872 0.066-1.316v-145.744c3.688-1.316 6.34-4.802 6.34-8.94v-61.946c0-4.14-2.652-7.628-6.34-8.946v-404.72c0-21.054-17.07-38.122-38.126-38.122h-37.492l-20.004-39.592c-2.636-5.218-9.542-9.468-15.394-9.468H337.528c-5.852 0-12.758 4.25-15.394 9.468l-20.004 39.592H264.04c-21.054 0-38.122 17.068-38.122 38.122v404.198c-4.968 0.328-8.91 4.414-8.91 9.468v61.946c0 5.05 3.942 9.138 8.91 9.464v143.982l-20.484 20.93a9.528 9.528 0 0 0 0.708 13.462l46.032 41.456a9.532 9.532 0 0 0 13.46-0.704l29.64-35.786h377.19l29.64 35.786a9.532 9.532 0 0 0 13.46 0.704l46.032-41.456a9.532 9.532 0 0 0 0.704-13.462z" fill="#BE3D27" /><path d="M695.508 184.028H331.66c-3.02 0-5.36-1.1-6.586-3.098-1.23-1.996-1.156-4.58 0.208-7.274L350.266 124.2c2.636-5.22 9.542-9.47 15.394-9.47h295.844c5.852 0 12.758 4.25 15.394 9.47l24.99 49.456c1.36 2.694 1.434 5.278 0.204 7.274-1.228 1.998-3.568 3.098-6.584 3.098z" fill="#323232" /><path d="M772.52 832.212c0 21.054-17.07 38.124-38.126 38.124H292.172c-21.054 0-38.122-17.07-38.122-38.124v-630.3c0-21.052 17.066-38.118 38.122-38.118h442.222c21.054 0 38.126 17.066 38.126 38.118v630.3z" fill="#E8E9EC" /><path d="M254.05 614.61v80.884c0.21 0.018 0.41 0.06 0.622 0.06h514.656c1.126 0 2.188-0.226 3.192-0.586v-79.834a9.55 9.55 0 0 0-3.192-0.586H254.672c-0.212-0.002-0.41 0.046-0.622 0.062z" fill="#CDCCCA" /><path d="M734.394 163.794h-38.122c21.054 0 38.122 17.066 38.122 38.118v630.3c0 21.054-17.066 38.124-38.122 38.124h38.122c21.054 0 38.126-17.07 38.126-38.124v-630.3c0-21.052-17.07-38.118-38.126-38.118zM640.352 163.794h-254.72L512.8 370.772z" fill="#CDCCCA" /><path d="M560.68 637.798a8.856 8.856 0 0 0-12.5-0.65l-24.336 21.914a8.854 8.854 0 0 0-0.652 12.502l164.644 198.772h46.558c14.692 0 27.416-8.322 33.786-20.496L560.68 637.798zM474.852 637.148a8.852 8.852 0 0 0-12.5 0.65l-205.128 209.62c5.876 13.484 19.304 22.918 34.95 22.918H335.2l164.644-198.772a8.86 8.86 0 0 0-0.652-12.502l-24.34-21.914z" fill="#CDCCCA" /><path d="M360.31 398.186m-64.862 0a64.862 64.862 0 1 0 129.724 0 64.862 64.862 0 1 0-129.724 0Z" fill="#323232" /><path d="M254.05 695.434v95.958c100.954-144.224 407.032-580.926 439.628-627.596h-66.774c-26.346 37.742-249.904 356.32-372.854 531.638z" fill="#CDCCCA" /><path d="M628.3 161.794c-30.774 44.206-77.364 110.534-115.016 164.75-37.656-54.216-84.246-120.544-115.02-164.75h-66.778c38.274 54.876 111.648 160.834 145.632 209.066 3.032 4.3 8.426 9.526 13.69 9.526h44.942c5.266 0 10.66-5.226 13.696-9.526 33.98-48.232 107.36-154.19 145.628-209.066H628.3zM778.86 677.53a9.526 9.526 0 0 1-9.532 9.524H254.672a9.53 9.53 0 0 1-9.532-9.524v-61.948a9.532 9.532 0 0 1 9.532-9.534h514.656a9.53 9.53 0 0 1 9.532 9.534v61.948z" fill="#323232" /><path d="M256.472 677.53v-61.948a9.532 9.532 0 0 1 9.532-9.534h-11.332a9.532 9.532 0 0 0-9.532 9.534v61.948a9.53 9.53 0 0 0 9.532 9.524h11.332a9.53 9.53 0 0 1-9.532-9.524z" fill="#494A4A" /><path d="M569.394 683.07a9.53 9.53 0 0 1-9.532 9.532h-93.16a9.53 9.53 0 0 1-9.532-9.532v-73.496a9.53 9.53 0 0 1 9.532-9.536h93.16a9.53 9.53 0 0 1 9.532 9.536v73.496z" fill="#323232" /><path d="M551.476 620.762a9.53 9.53 0 0 1 13.46 0.702L790.434 851.9a9.53 9.53 0 0 1-0.704 13.464L743.7 906.82a9.526 9.526 0 0 1-13.46-0.704L524.57 657.82a9.526 9.526 0 0 1 0.704-13.458l26.202-23.6zM472.524 620.762a9.528 9.528 0 0 0-13.458 0.702L233.566 851.9a9.534 9.534 0 0 0 0.708 13.464l46.032 41.456a9.528 9.528 0 0 0 13.46-0.704L499.43 657.82a9.53 9.53 0 0 0-0.7-13.458l-26.206-23.6z" fill="#323232" /><path d="M468.04 683.07v-73.496a9.53 9.53 0 0 1 9.532-9.536h-10.868a9.53 9.53 0 0 0-9.532 9.536v73.496a9.53 9.53 0 0 0 9.532 9.532h10.868a9.528 9.528 0 0 1-9.532-9.532z" fill="#494A4A" /></svg>